<svg width="30" height="30" viewBox="0 0 30 30" fill="none" xmlns="http://www.w3.org/2000/svg">
<path fill-rule="evenodd" clip-rule="evenodd" d="M6 0C2.68629 0 0 2.68629 0 6V24C0 27.3137 2.68629 30 6 30H24C27.3137 30 30 27.3137 30 24V6C30 2.68629 27.3137 0 24 0H6ZM18.75 13.5C18.75 15.0645 17.7919 16.4052 16.4305 16.9675C17.8249 17.1997 19.1075 17.7657 20.1916 18.5802L18.8101 20.419C17.7488 19.6217 16.4312 19.1496 15.0001 19.1496C13.569 19.1496 12.2514 19.6217 11.1901 20.419L9.80859 18.5802C10.8926 17.7657 12.1752 17.1998 13.5695 16.9675C12.2081 16.4052 11.25 15.0645 11.25 13.5C11.25 11.4289 12.9289 9.75 15 9.75C17.0711 9.75 18.75 11.4289 18.75 13.5Z" fill="black"/>
</svg>
