<svg width="248" height="248" viewBox="0 0 248 248" fill="none" xmlns="http://www.w3.org/2000/svg">
<path opacity="0.13" fill-rule="evenodd" clip-rule="evenodd" d="M248.005 123.884C248.005 128.173 247.787 132.411 247.361 136.588V184.878V185.51V186.378V187.01V246.504V248.004H245.861H186.527H185.898H185.027H184.398H125.064H124.425H123.564H122.925H63.5918H62.9622H62.0918H61.4622H2.12891H0.628906V246.504V187.01V186.378V185.51V184.878V136.438C0.213006 132.31 0 128.122 0 123.884C0 119.646 0.213006 115.457 0.628906 111.329V63.758V63.1259V62.258V61.6259V2.13208V0.632083H2.12891H61.4622H62.0982H62.9622H63.5982H111.398C115.543 0.214092 119.748 0 124.002 0C128.257 0 132.462 0.214092 136.607 0.632083H184.398H185.027H185.898H186.527H245.86H247.36V2.13208V61.6259V62.258H247.361V63.758V111.18C247.787 115.357 248.005 119.595 248.005 123.884ZM245.861 63.758V100.825C243.37 87.6088 238.779 75.1332 232.447 63.758H245.861ZM245.861 111.258C244.104 94.1316 238.812 78.0517 230.726 63.758H186.527V123.252H245.861V111.258ZM245.86 61.6259H231.232C220.451 43.1331 205.015 27.6828 186.527 16.8777V2.13208H245.86V61.6259ZM229.492 61.6259C219.012 43.9426 204.205 29.1217 186.527 18.619V61.6259H229.492ZM184.398 2.13208V15.6615C172.94 9.26549 160.361 4.63314 147.03 2.13208H184.398ZM184.398 17.3829C170.007 9.22003 153.798 3.88443 136.53 2.13208H125.065V61.6259H184.398V17.3829ZM63.5982 2.13208H100.975C87.6405 4.63376 75.0588 9.26781 63.5982 15.6663V2.13208ZM111.475 2.13208C94.2028 3.88478 77.9915 9.22215 63.5982 17.3878V61.6259H122.932V2.13208H111.475ZM61.4622 2.13208V16.8867C42.9815 27.6914 27.5506 43.1383 16.7728 61.6259H2.12891V2.13208H61.4622ZM61.4622 18.6282C43.7909 29.1303 28.9892 43.9477 18.5131 61.6259H61.4622V18.6282ZM2.12891 63.758H15.558C9.21276 75.1562 4.6157 87.6593 2.12891 100.906V63.758ZM2.12891 125.384V136.362C3.90573 153.891 9.38536 170.327 17.7742 184.878H61.4622V125.384H2.12891ZM2.12891 184.878V146.862C4.67899 160.445 9.44813 173.247 16.0459 184.878H2.12891ZM2.12891 187.01H17.2839C28.0359 205.113 43.2717 220.246 61.4622 230.881V246.504H2.12891V187.01ZM63.5918 246.504V232.098C76.5474 239.332 90.9359 244.311 106.225 246.504H63.5918ZM63.5918 230.376C81.1273 240.326 101.362 246.077 122.925 246.263V187.01H63.5918V230.376ZM184.398 246.504H141.78C157.063 244.312 171.446 239.336 184.398 232.106V246.504ZM125.064 246.263C146.628 246.08 166.862 240.331 184.398 230.385V187.01H125.064V246.263ZM186.527 246.504V230.889C204.725 220.254 219.966 205.118 230.721 187.01H245.861V246.504H186.527ZM186.527 229.148C203.915 218.818 218.526 204.31 228.972 187.01H186.527V229.148ZM186.527 184.878H230.23C238.596 170.368 244.068 153.983 245.861 136.51V125.384H186.527V184.878ZM245.861 146.942C243.307 160.496 238.544 173.27 231.959 184.878H245.861V146.942ZM19.0326 187.01C29.4761 204.305 44.0811 218.81 61.4622 229.139V187.01H19.0326ZM17.2785 63.758C9.16942 78.0929 3.87048 94.2243 2.12891 111.406V123.252H61.4622V63.758H17.2785ZM63.5918 63.758H122.925V67.3789H92.6071V67.379H76.9102V123.252H63.5918V63.758ZM76.9102 125.384H63.5918V184.878H122.925V125.384H96.9639V180.814H76.9102V125.384ZM96.9639 123.252H122.925V87.4489H96.9639V123.252ZM125.064 67.3789H153.641H158H173.694V123.252H184.398V63.758H125.064V67.3789ZM173.694 125.384H184.398V184.878H125.064V125.384H153.641V180.813H173.694V125.384ZM153.641 123.252V87.4489H125.064V123.252H153.641Z" fill="#4A4A4A"/>
</svg>
